<?xml version="1.0" standalone="no"?>
<!DOCTYPE svg PUBLIC "-//W3C//DTD SVG 20010904//EN"
 "http://www.w3.org/TR/2001/REC-SVG-20010904/DTD/svg10.dtd">
<svg version="1.0" xmlns="http://www.w3.org/2000/svg"
 width="20.000000pt" height="20.000000pt" viewBox="0 0 20.000000 20.000000"
 preserveAspectRatio="xMidYMid meet">

<g transform="translate(0.000000,20.000000) scale(0.100000,-0.100000)"
fill="#006ed0" stroke="none">
<path d="M42 157 c-50 -53 -13 -137 59 -137 47 0 79 34 79 81 0 71 -90 107
-138 56z m83 3 c52 -20 52 -100 0 -120 -55 -21 -106 30 -85 85 8 21 24 33 57
44 1 1 13 -3 28 -9z"/>
<path d="M90 122 c0 -30 33 -71 44 -54 3 5 -1 15 -9 22 -8 7 -15 23 -15 36 0
13 -4 24 -10 24 -5 0 -10 -13 -10 -28z"/>
</g>
</svg>
